<svg width="357" height="291" viewBox="0 0 357 291" fill="none" xmlns="http://www.w3.org/2000/svg">
<g filter="url(#filter0_d_29_371)">
<circle cx="6" cy="40" r="2" fill="#ABB2BF"/>
<circle cx="20.75" cy="40" r="2" fill="#ABB2BF"/>
<circle cx="35.5" cy="40" r="2" fill="#ABB2BF"/>
<circle cx="50.25" cy="40" r="2" fill="#ABB2BF"/>
<circle cx="65" cy="40" r="2" fill="#ABB2BF"/>
<circle cx="6" cy="54.75" r="2" fill="#ABB2BF"/>
<circle cx="20.75" cy="54.75" r="2" fill="#ABB2BF"/>
<circle cx="35.5" cy="54.75" r="2" fill="#ABB2BF"/>
<circle cx="50.25" cy="54.75" r="2" fill="#ABB2BF"/>
<circle cx="65" cy="54.75" r="2" fill="#ABB2BF"/>
<circle cx="6" cy="69.5" r="2" fill="#ABB2BF"/>
<circle cx="20.75" cy="69.5" r="2" fill="#ABB2BF"/>
<circle cx="35.5" cy="69.5" r="2" fill="#ABB2BF"/>
<circle cx="50.25" cy="69.5" r="2" fill="#ABB2BF"/>
<circle cx="65" cy="69.5" r="2" fill="#ABB2BF"/>
<circle cx="6" cy="84.25" r="2" fill="#ABB2BF"/>
<circle cx="20.75" cy="84.25" r="2" fill="#ABB2BF"/>
<circle cx="35.5" cy="84.25" r="2" fill="#ABB2BF"/>
<circle cx="50.25" cy="84.25" r="2" fill="#ABB2BF"/>
<circle cx="65" cy="84.25" r="2" fill="#ABB2BF"/>
<circle cx="6" cy="99" r="2" fill="#ABB2BF"/>
<circle cx="20.75" cy="99" r="2" fill="#ABB2BF"/>
<circle cx="35.5" cy="99" r="2" fill="#ABB2BF"/>
<circle cx="50.25" cy="99" r="2" fill="#ABB2BF"/>
<circle cx="65" cy="99" r="2" fill="#ABB2BF"/>
<circle cx="183" cy="145" r="2" fill="#ABB2BF"/>
<circle cx="197.75" cy="145" r="2" fill="#ABB2BF"/>
<circle cx="212.5" cy="145" r="2" fill="#ABB2BF"/>
<circle cx="227.25" cy="145" r="2" fill="#ABB2BF"/>
<circle cx="242" cy="145" r="2" fill="#ABB2BF"/>
<circle cx="183" cy="159.75" r="2" fill="#ABB2BF"/>
<circle cx="197.75" cy="159.75" r="2" fill="#ABB2BF"/>
<circle cx="212.5" cy="159.75" r="2" fill="#ABB2BF"/>
<circle cx="227.25" cy="159.75" r="2" fill="#ABB2BF"/>
<circle cx="242" cy="159.75" r="2" fill="#ABB2BF"/>
<circle cx="183" cy="174.5" r="2" fill="#ABB2BF"/>
<circle cx="197.75" cy="174.5" r="2" fill="#ABB2BF"/>
<circle cx="212.5" cy="174.5" r="2" fill="#ABB2BF"/>
<circle cx="227.25" cy="174.5" r="2" fill="#ABB2BF"/>
<circle cx="242" cy="174.5" r="2" fill="#ABB2BF"/>
<circle cx="183" cy="189.25" r="2" fill="#ABB2BF"/>
<circle cx="197.75" cy="189.25" r="2" fill="#ABB2BF"/>
<circle cx="212.5" cy="189.25" r="2" fill="#ABB2BF"/>
<circle cx="227.25" cy="189.25" r="2" fill="#ABB2BF"/>
<circle cx="242" cy="189.25" r="2" fill="#ABB2BF"/>
<circle cx="183" cy="204" r="2" fill="#ABB2BF"/>
<circle cx="197.75" cy="204" r="2" fill="#ABB2BF"/>
<circle cx="212.5" cy="204" r="2" fill="#ABB2BF"/>
<circle cx="227.25" cy="204" r="2" fill="#ABB2BF"/>
<circle cx="242" cy="204" r="2" fill="#ABB2BF"/>
<rect x="301.5" y="193.5" width="51" height="51" stroke="#ABB2BF"/>
<rect x="231.5" y="0.5" width="85" height="85" stroke="#ABB2BF"/>
<mask id="path-53-inside-1_29_371" fill="white">
<path fill-rule="evenodd" clip-rule="evenodd" d="M75.5 169H103.75H132V197.25V225.5V253.75H103.75H75.5V225.5H103.75V197.25H75.5V169Z"/>
</mask>
<path d="M75.5 169V168H74.5V169H75.5ZM132 169H133V168H132V169ZM132 253.75V254.75H133V253.75H132ZM75.5 253.75H74.5V254.75H75.5V253.75ZM75.5 225.5V224.5H74.5V225.5H75.5ZM103.75 225.5V226.5H104.75V225.5H103.75ZM103.75 197.25H104.75V196.25H103.75V197.25ZM75.5 197.25H74.5V198.25H75.5V197.25ZM103.75 168H75.5V170H103.75V168ZM132 168H103.75V170H132V168ZM133 197.25V169H131V197.25H133ZM133 225.5V197.25H131V225.5H133ZM133 253.75V225.5H131V253.75H133ZM103.75 254.75H132V252.75H103.75V254.75ZM103.75 252.75H75.5V254.75H103.75V252.75ZM76.5 253.75V225.5H74.5V253.75H76.5ZM75.5 226.5H103.75V224.5H75.5V226.5ZM102.75 197.25V225.5H104.75V197.25H102.75ZM75.5 198.25H103.75V196.25H75.5V198.25ZM74.5 169V197.25H76.5V169H74.5Z" fill="#C778DD" mask="url(#path-53-inside-1_29_371)"/>
<mask id="path-55-outside-2_29_371" maskUnits="userSpaceOnUse" x="18" y="196.25" width="59" height="87" fill="black">
<rect fill="white" x="18" y="196.25" width="59" height="87"/>
<path fill-rule="evenodd" clip-rule="evenodd" d="M19 197.25H47.25H75.5V225.5H47.25V253.75H75.5V282H47.25H19V253.75V225.5V197.25Z"/>
</mask>
<path d="M19 197.25V196.25H18V197.25H19ZM75.5 197.25H76.5V196.25H75.5V197.25ZM75.5 225.5V226.5H76.5V225.5H75.5ZM47.25 225.5V224.5H46.25V225.5H47.25ZM47.25 253.75H46.25V254.75H47.25V253.75ZM75.5 253.75H76.5V252.75H75.5V253.75ZM75.5 282V283H76.5V282H75.5ZM19 282H18V283H19V282ZM47.25 196.25H19V198.25H47.25V196.25ZM75.5 196.25H47.25V198.25H75.5V196.25ZM76.5 225.5V197.25H74.5V225.5H76.5ZM47.25 226.5H75.5V224.5H47.25V226.5ZM48.25 253.75V225.5H46.25V253.75H48.25ZM47.25 254.75H75.5V252.75H47.25V254.75ZM74.5 253.75V282H76.5V253.75H74.5ZM75.5 281H47.25V283H75.5V281ZM19 283H47.25V281H19V283ZM18 253.75V282H20V253.75H18ZM18 225.5V253.75H20V225.5H18ZM18 197.25V225.5H20V197.25H18Z" fill="#C778DD" mask="url(#path-55-outside-2_29_371)"/>
</g>
<defs>
<filter id="filter0_d_29_371" x="0" y="0" width="357" height="291" filterUnits="userSpaceOnUse" color-interpolation-filters="sRGB">
<feFlood flood-opacity="0" result="BackgroundImageFix"/>
<feColorMatrix in="SourceAlpha" type="matrix" values="0 0 0 0 0 0 0 0 0 0 0 0 0 0 0 0 0 0 127 0" result="hardAlpha"/>
<feOffset dy="4"/>
<feGaussianBlur stdDeviation="2"/>
<feComposite in2="hardAlpha" operator="out"/>
<feColorMatrix type="matrix" values="0 0 0 0 0 0 0 0 0 0 0 0 0 0 0 0 0 0 0.25 0"/>
<feBlend mode="normal" in2="BackgroundImageFix" result="effect1_dropShadow_29_371"/>
<feBlend mode="normal" in="SourceGraphic" in2="effect1_dropShadow_29_371" result="shape"/>
</filter>
</defs>
</svg>
